<?xml version="1.0" standalone="no"?>
<!DOCTYPE svg PUBLIC "-//W3C//DTD SVG 20010904//EN"
 "http://www.w3.org/TR/2001/REC-SVG-20010904/DTD/svg10.dtd">
<svg version="1.0" xmlns="http://www.w3.org/2000/svg"
 width="170.000000pt" height="170.000000pt" viewBox="0 0 170.000000 170.000000"
 preserveAspectRatio="xMidYMid meet">
<metadata>
Created by RickyAlbuq
</metadata>
<g transform="translate(0.000000,170.000000) scale(0.100000,-0.100000)"
fill="#000000" stroke="none">
<path d="M590 1522 c-107 -29 -206 -55 -220 -58 -25 -5 -134 -35 -202 -56 -20
-6 -39 -17 -42 -24 -3 -7 8 -62 23 -121 53 -202 93 -348 96 -354 2 -3 7 -21
10 -40 3 -19 14 -63 25 -99 10 -36 35 -128 55 -205 20 -77 46 -154 56 -172 22
-35 22 -36 234 -92 83 -22 186 -49 230 -61 44 -12 111 -30 149 -40 45 -12 75
-16 86 -10 14 7 86 244 115 375 2 11 40 151 83 310 67 244 78 293 67 310 -10
16 -110 51 -195 68 -32 6 -37 17 -35 77 2 96 -3 100 -144 100 l-118 0 -7 32
c-17 84 -26 106 -49 110 -12 2 -110 -20 -217 -50z"/>
</g>
</svg>
